<svg xmlns="http://www.w3.org/2000/svg" viewBox="0 0 64 64">
  <defs>
    <linearGradient id="bulbG" x1="0" y1="0" x2="0" y2="1">
      <stop offset="0%" stop-color="#FFD75A"/>
      <stop offset="55%" stop-color="#F39200"/>
      <stop offset="100%" stop-color="#C25A00"/>
    </linearGradient>
    <linearGradient id="capG" x1="0" y1="0" x2="0" y2="1">
      <stop offset="0%" stop-color="#0B2A5B"/>
      <stop offset="100%" stop-color="#08204A"/>
    </linearGradient>
  </defs>
  <rect width="64" height="64" rx="12" fill="#0B2A5B"/>
  <!-- bulb -->
  <path d="M32 8 C20 8 14 18 14 28 C14 36 20 42 23 47 L41 47 C44 42 50 36 50 28 C50 18 44 8 32 8 Z" fill="url(#bulbG)" stroke="#7A3D00" stroke-width="0.8"/>
  <!-- africa silhouette (simplified) -->
  <path d="M32 16 C27 19 24 25 25 33 C26 38 28 42 32 45 C36 42 38 38 39 33 C40 25 37 19 32 16 Z" fill="#2E7D32"/>
  <!-- rays -->
  <path d="M32 2 L32 7" stroke="#F39200" stroke-width="2.4" stroke-linecap="round"/>
  <path d="M14 10 L18 14" stroke="#F39200" stroke-width="2.4" stroke-linecap="round"/>
  <path d="M50 10 L46 14" stroke="#F39200" stroke-width="2.4" stroke-linecap="round"/>
  <!-- base -->
  <rect x="22" y="48" width="20" height="4" rx="1.5" fill="url(#capG)"/>
  <rect x="24" y="53" width="16" height="3" rx="1" fill="url(#capG)"/>
</svg>
